<svg xmlns="http://www.w3.org/2000/svg" class="injected-svg inject-me" viewBox="0 0 232.38 250"><path d="M127.76 0h.48c3.24 3.97 6.47 7.94 9.71 11.91-6.61 4.6-8.09 5.7-11.62 8.45-11.5 8.97-21.32 21.39-25.77 37.27-5.71 20.39 5.83 40.64 16.66 49.29 8.83 7.06 17.17 14.28 29.36 18.1 31.82 9.96 53.22-14.09 64.11-32.38 2.98-5 6.18-10.91 7.79-17.02 4.63 2.26 9.27 4.52 13.9 6.79-.2 2.3-1.38 4.45-2.16 6.31-2.79 6.7-6.07 12.49-9.71 18.22-13.4 21.12-42.38 47.08-80.05 35.84-7.36-2.19-14.09-5.02-20.01-8.69-16.43-10.17-29.95-24.24-36.19-44.53-2.39-7.76-3.78-19.87-1.68-29.29 1.36-6.1 3-11.64 5.27-16.79 6.48-14.66 18.76-28.37 30.92-37.5 3-2.01 6-4 8.99-5.98z" clip-rule="evenodd" fill="#468dcb" fill-rule="evenodd"/><path d="M81.37 132.49c9.64-.13 18.24 2.02 25.29 4.76 22.98 8.95 41.39 24.68 50.69 47.15 10.48 25.29 1.06 53.88-15.94 65.6l-15.46-3.33c.4-.44.48-.5.88-.93 2-1.86 6.34-6.71 8.11-9.19 7.19-10.08 13.25-26.8 8.03-43.34-5.92-18.77-19.75-31.37-37.63-38.33-6.24-2.43-16-5.01-24.93-3.45-4.61.8-8.8 1.51-12.58 3.09-19.11 8.03-32.89 28.03-43.5 44.77-3.59 5.95-7.19 11.91-10.79 17.86-4.51-1.74-9.03-3.49-13.54-5.24 3.21-6.94 7.29-13.75 11.15-20.24 12.09-20.34 24.37-40.28 44.82-52.27 4.86-2.85 10.61-4.68 16.9-6.07l8.5-.84zm65.51-72.93c3.45.33 12.85 3.79 17.62 9.76 1.35 1.69 2.54 4.22 3.24 6.43 3.58 11.43-3.23 20.67-8.75 24.76-2.85 2.11-4.33 2.99-9.23 3.69-13.58 1.95-34.51-11.8-27.8-30.24 2.99-8.23 13.09-13.12 15.82-13.81 2.73-.69 5.66-.91 9.1-.59z" clip-rule="evenodd" fill="#f26c50" fill-rule="evenodd"/></svg>